<svg width="20" height="20" viewBox="0 0 20 20" fill="none" xmlns="http://www.w3.org/2000/svg">
<path d="M11.5714 7.46269C10.9697 9.47976 10.4649 11.4177 9.86319 13.319C9.60227 14.2881 9.2023 15.2143 8.67574 16.0687C8.06206 16.9399 7.07323 17.4704 6.00797 17.5C5.17835 17.5 4.36475 17.1102 4.36475 16.2476C4.40581 15.7099 4.821 15.2762 5.35633 15.2117C5.54536 15.2045 5.72194 15.3058 5.81116 15.4726C6.21796 16.2043 6.60876 16.6271 6.78768 16.6271C6.9666 16.6271 7.1135 16.3832 7.40542 15.3257L9.53737 7.46269H8.00809C7.90039 7.15708 7.99831 6.8168 8.25198 6.61518H9.7822C10.0575 5.65784 10.4335 4.73235 10.9037 3.85419C11.5428 2.47409 12.8986 1.56591 14.4181 1.5C15.6422 1.5 16.1423 2.08572 16.1423 2.83435C16.1388 3.43724 15.6969 3.94785 15.1008 4.03781C14.8409 4.03781 14.7109 3.84288 14.6299 3.56697C14.354 2.52642 13.9952 2.21755 13.7824 2.21755C13.5696 2.21755 13.2457 2.6074 12.8878 3.42101C12.4426 4.45703 12.0833 5.52786 11.8134 6.62271H13.6685C13.7844 6.93145 13.6776 7.27953 13.4086 7.47022L11.5714 7.46269Z" fill="#292929"/>
</svg>
