<svg preserveAspectRatio="none" width="100%" height="100%" overflow="visible" style="display: block;" viewBox="0 0 20 20" fill="none" xmlns="http://www.w3.org/2000/svg">
<g id="Frame">
<path id="iconFill" fill-rule="evenodd" clip-rule="evenodd" d="M13.3615 1.26439L11.4242 3.2007L10.8409 2.61748C10.4069 2.18346 9.70378 2.18346 9.26976 2.61748C8.83573 3.0515 8.83573 3.75463 9.26976 4.18866L9.85326 4.77216L2.28624 12.3386C2.13868 12.4862 2.03559 12.6717 1.98893 12.8746L1.21093 16.2481C1.03732 17.0001 1.25868 17.7748 1.80447 18.3206C2.22764 18.7438 2.78862 18.9716 3.36913 18.9716C3.53732 18.9716 3.70768 18.9532 3.87586 18.9141L7.25042 18.1361C7.45333 18.0895 7.63888 17.9864 7.78644 17.8388L15.3529 10.2718L15.9364 10.8553C16.1534 11.0723 16.4377 11.1808 16.722 11.1808C17.0063 11.1808 17.2906 11.0723 17.5076 10.8553C17.9416 10.4213 17.9416 9.71816 17.5076 9.28413L16.9244 8.70091L18.8607 6.76352C19.6087 6.01551 19.9876 5.03577 19.9974 4.053C20.0074 3.0442 19.6285 2.03222 18.8607 1.26439C18.1121 0.515867 17.1327 0.1367 16.1503 0.126889C15.1417 0.116811 14.13 0.495978 13.3615 1.26439ZM11.2237 11.259C11.1849 11.2546 11.151 11.2362 11.1111 11.2362H6.5313L11.4244 6.34333L13.7817 8.70065L11.2237 11.259Z" fill="var(--fill-0, #292929)"/>
</g>
</svg>
