<svg preserveAspectRatio="none" width="100%" height="100%" overflow="visible" style="display: block;" viewBox="0 0 20 20" fill="none" xmlns="http://www.w3.org/2000/svg">
<g id="Frame">
<path id="iconPrimary" d="M10 1.75C5.45117 1.75 1.75 5.45117 1.75 10C1.75 14.5488 5.45117 18.25 10 18.25C14.5488 18.25 18.25 14.5488 18.25 10C18.25 5.45117 14.5488 1.75 10 1.75ZM9.99927 9.99976L9.99182 3.25049C9.99457 3.25049 9.99725 3.25 10 3.25C12.4848 3.25 14.6545 4.60327 15.8262 6.60791C16.4097 7.60596 16.75 8.7627 16.75 10C16.75 11.2285 16.4148 12.3779 15.8389 13.3713C14.6702 15.3874 12.4935 16.75 10 16.75C9.99176 16.75 9.98376 16.7488 9.97552 16.7488C7.48352 16.7397 5.31018 15.3713 4.14831 13.3501C3.58007 12.3616 3.24999 11.2197 3.24999 10C3.24999 8.77148 3.58513 7.62231 4.16094 6.62891L9.99927 9.99976Z" fill="var(--fill-0, #292929)"/>
<path id="iconPrimary_2" opacity="0.7" d="M4.16095 6.62891C3.58514 7.62232 3.25 8.77149 3.25 10C3.25 11.2197 3.58008 12.3616 4.14832 13.3501L9.99927 9.99976L4.16095 6.62891Z" fill="var(--fill-0, #292929)"/>
<path id="iconPrimary_3" opacity="0.5" d="M4.14832 13.3501C5.31019 15.3713 7.48353 16.7397 9.97553 16.7488L9.99927 9.99976L4.14832 13.3501Z" fill="var(--fill-0, #292929)"/>
<path id="iconPrimary_4" opacity="0.35" d="M9.99927 9.99976L9.97553 16.7488C9.98377 16.7488 9.99177 16.75 10 16.75C12.4935 16.75 14.6702 15.3874 15.8389 13.3713L9.99927 9.99976Z" fill="var(--fill-0, #292929)"/>
<path id="iconPrimary_5" opacity="0.12" d="M9.99927 9.99976L15.8389 13.3713C16.4148 12.3779 16.75 11.2285 16.75 10C16.75 8.7627 16.4097 7.60596 15.8262 6.60791L9.99927 9.99976Z" fill="var(--fill-0, #292929)"/>
</g>
</svg>
