<svg preserveAspectRatio="none" width="100%" height="100%" overflow="visible" style="display: block;" viewBox="0 0 20 20" fill="none" xmlns="http://www.w3.org/2000/svg">
<g id="Frame">
<path id="iconPrimary" d="M15 2H5C3.9 2 3 2.9 3 4V18C3 18.4 3.2 18.7 3.6 18.9C3.7 18.9 3.9 19 4 19C4.2 19 4.4 18.9 4.6 18.8L9.4 15.2L14.2 18.8C14.4 18.9 14.6 19 14.8 19C15 19 15.2 18.9 15.4 18.9C15.8 18.7 16 18.4 16 18V4C16 2.9 15.1 2 15 2ZM14 16.2L9.6 13.3C9.4 13.1 9.2 13 9 13C8.8 13 8.6 13.1 8.4 13.2L4 16.2V4H14V16.2Z" fill="var(--fill-0, #292929)"/>
</g>
</svg>
