<svg width="78" height="19" viewBox="0 0 78 19" fill="none" xmlns="http://www.w3.org/2000/svg">
<path d="M11.9948 18.4323L10.525 14.3449H6.83907L9.93814 6.54439L14.6395 18.4323H20.2225L12.7695 0.53411H7.50701L0 18.4323H11.9948ZM32.7514 17.6306V0H28.1028V4.43496C27.5147 4.30112 26.9535 4.24833 26.3936 4.24833C22.8145 4.24833 19.3679 6.73225 19.3679 11.5945C19.3679 16.4567 22.9213 18.7 27.1144 18.7C29.4117 18.7 31.6819 18.1119 32.7514 17.6318V17.6306ZM24.0153 11.5135C24.0153 9.13636 25.431 7.9871 26.9806 7.9871C27.4078 7.9871 27.7823 8.06691 28.1028 8.20074V14.6923C27.7823 14.7992 27.4078 14.8532 27.0076 14.8532C25.458 14.8532 24.0153 13.8107 24.0153 11.5135ZM48.2185 11.4607C48.2185 6.86608 44.9328 4.24833 41.0319 4.24833C37.1311 4.24833 33.8724 6.86608 33.8724 11.4607C33.8724 16.0552 37.1311 18.673 41.0319 18.673C44.9328 18.673 48.2185 16.0552 48.2185 11.4607ZM38.494 11.4607C38.494 9.19038 39.669 8.12093 41.0319 8.12093C42.3949 8.12093 43.5969 9.18915 43.5969 11.4607C43.5969 13.7322 42.3949 14.8004 41.0319 14.8004C39.669 14.8004 38.494 13.7322 38.494 11.4607ZM62.75 11.2728C62.75 6.6242 59.3845 4.22009 55.7243 4.22009C55.1632 4.22009 54.5763 4.29989 53.9881 4.40672V0H49.3395V17.6576C50.7822 18.3255 53.0795 18.7 54.8955 18.7C59.1426 18.7 62.7488 16.1891 62.7488 11.274L62.75 11.2728ZM55.1104 8.01411C56.6599 8.01411 58.1026 9.08233 58.1026 11.3268C58.1026 13.7309 56.6071 14.8532 55.0306 14.8532C54.6303 14.8532 54.2828 14.8004 53.9881 14.6923V8.22775C54.3356 8.09392 54.6831 8.01411 55.1104 8.01411ZM71.6997 18.673C73.3831 18.673 75.0124 18.3795 76.3741 17.6846V14.1312C74.9044 14.7721 73.5955 15.1196 72.1798 15.1196C70.4436 15.1196 69.0537 14.3719 68.5466 12.7953H77.2815C77.3613 12.2072 77.3883 11.6203 77.3883 11.0051C77.3883 6.49036 74.1824 4.2471 70.6831 4.2471C66.9431 4.2471 63.8182 6.97167 63.8182 11.4336C63.8182 15.8956 67.2647 18.673 71.6985 18.673H71.6997ZM70.7371 7.74644C71.7795 7.74644 72.7937 8.36159 73.0344 9.88411H68.4926C68.8401 8.3886 69.7487 7.74644 70.7371 7.74644Z" fill="#EB1000"/>
</svg>
