<svg width="26" height="26" viewBox="0 0 26 26" fill="none" xmlns="http://www.w3.org/2000/svg">
<path d="M20.5205 1.26074H5.55773C3.22786 1.26074 1.33911 3.14949 1.33911 5.47937V20.4421C1.33911 22.772 3.22786 24.6607 5.55773 24.6607H20.5205C22.8504 24.6607 24.7391 22.772 24.7391 20.4421V5.47937C24.7391 3.14949 22.8504 1.26074 20.5205 1.26074ZM17.4591 19.0999C16.8822 19.0983 16.2273 18.8433 15.8835 18.0614L13.3787 12.2057C13.2441 11.8877 12.8084 11.8896 12.6747 12.2076L11.4473 15.1326C11.339 15.39 11.5272 15.6737 11.8061 15.6737C11.8061 15.6737 12.4252 15.6688 12.4642 15.6688C13.4119 15.6688 14.1802 16.438 14.1802 17.3848C14.1802 18.3315 13.4148 19.0989 12.469 19.1009H8.61782C7.39709 19.1009 6.57229 17.8567 7.04615 16.7316L10.5044 8.49581C10.9315 7.48083 11.9319 6.82067 13.0317 6.82067C14.1315 6.82067 15.122 7.47877 15.5501 8.49074L19.0308 16.7276C19.5076 17.8539 18.6827 19.0999 17.4591 19.0999Z" fill="#FFFFFF"/>
</svg>
