<svg width="56" height="55" viewBox="0 0 56 55" fill="none" xmlns="http://www.w3.org/2000/svg">
<mask id="mask0_3201_8176" style="mask-type:luminance" maskUnits="userSpaceOnUse" x="0" y="0" width="56" height="55">
<path d="M56 0H0V54.6H56V0Z" fill="white"/>
</mask>
<g mask="url(#mask0_3201_8176)">
<mask id="mask1_3201_8176" style="mask-type:luminance" maskUnits="userSpaceOnUse" x="0" y="0" width="56" height="55">
<path d="M56 0H0V54.6H56V0Z" fill="white"/>
</mask>
<g mask="url(#mask1_3201_8176)">
<path d="M9.92 0.000244141H46.09C51.57 0.000244141 56.01 4.44023 56.01 9.92023V44.6902C56.01 50.1702 51.57 54.6102 46.09 54.6102H9.92C4.44 54.6002 0 50.1602 0 44.6802V9.91025C0 4.43025 4.44 -0.00976562 9.92 -0.00976562" fill="#EB1000"/>
<path d="M43.54 41.0604H36.89C36.3 41.0704 35.76 40.7204 35.52 40.1804L28.3 23.3004C28.25 23.1304 28.08 23.0304 27.91 23.0804C27.81 23.1104 27.73 23.1904 27.69 23.2904L23.19 34.0104C23.11 34.2104 23.19 34.4304 23.39 34.5104C23.44 34.5304 23.49 34.5404 23.54 34.5404H28.49C28.8 34.5404 29.07 34.7204 29.19 35.0104L31.36 39.8304C31.55 40.2804 31.34 40.8004 30.89 41.0004C30.78 41.0504 30.66 41.0704 30.54 41.0704H12.54C12.09 41.0704 11.72 40.7004 11.72 40.2404C11.72 40.1304 11.74 40.0204 11.79 39.9204L23.24 12.6404C23.48 12.0504 24.06 11.6704 24.69 11.6704H31.3C31.94 11.6704 32.52 12.0504 32.75 12.6404L44.28 39.9204C44.46 40.3404 44.27 40.8204 43.85 41.0004C43.75 41.0404 43.64 41.0604 43.53 41.0704" fill="white"/>
</g>
</g>
</svg>
