<svg width="25" height="25" viewBox="0 0 25 25" fill="none" xmlns="http://www.w3.org/2000/svg">
<g clip-path="url(#clip0_476_5355)">
<path d="M18.0238 7.52723C17.8771 7.15433 17.487 6.89511 17.0877 6.89968L9.77172 6.90044C8.45106 6.9056 8.44668 8.91848 9.77178 8.92408C9.77172 8.92409 14.6457 8.92341 14.6457 8.92341L6.93832 16.6308C6.54295 17.0262 6.54295 17.6664 6.93832 18.0617C7.33369 18.4571 7.97388 18.4571 8.36925 18.0617L16.0766 10.3544L16.076 15.2284C16.0817 16.5504 18.0938 16.5524 18.0996 15.2283C18.0996 15.2284 18.1004 7.91236 18.1004 7.91236C18.1003 7.78139 18.0745 7.6505 18.0238 7.52723Z" fill="#131313"/>
</g>
<defs>
<clipPath id="clip0_476_5355">
<rect width="17.6777" height="17.6777" fill="white" transform="translate(0 12.5) rotate(-45)"/>
</clipPath>
</defs>
</svg>
