<svg width="24" height="24" viewBox="0 0 24 24" fill="none" xmlns="http://www.w3.org/2000/svg" aria-hidden="true">
  <path fill-rule="evenodd" clip-rule="evenodd" d="M13.8854 12L19.6094 6.27603C20.1302 5.75521 20.1302 4.91145 19.6094 4.39062C19.0885 3.86979 18.2448 3.86979 17.724 4.39062L12 10.1146L6.27603 4.39062C5.75521 3.86979 4.91145 3.86979 4.39062 4.39062C3.86979 4.91145 3.86979 5.75521 4.39062 6.27603L10.1146 12L4.39062 17.724C3.86979 18.2448 3.86979 19.0885 4.39062 19.6094C4.65103 19.8698 4.99218 20 5.33333 20C5.67447 20 6.01562 19.8698 6.27603 19.6094L12 13.8854L17.724 19.6094C17.9844 19.8698 18.3255 20 18.6667 20C19.0078 20 19.349 19.8698 19.6094 19.6094C20.1302 19.0885 20.1302 18.2448 19.6094 17.724L13.8854 12Z" fill="#292929"/>
</svg>
