<svg width="20" height="20" viewBox="0 0 20 20" fill="none" xmlns="http://www.w3.org/2000/svg">
<path d="M15.75 18H8.25C7.00977 18 6 16.9902 6 15.75C6 15.3359 6.33594 15 6.75 15C7.16406 15 7.5 15.3359 7.5 15.75C7.5 16.1631 7.83691 16.5 8.25 16.5H15.75C16.1631 16.5 16.5 16.1631 16.5 15.75V8.25C16.5 7.83691 16.1631 7.5 15.75 7.5C15.3359 7.5 15 7.16406 15 6.75C15 6.33594 15.3359 6 15.75 6C16.9902 6 18 7.00977 18 8.25V15.75C18 16.9902 16.9902 18 15.75 18Z" fill="#292929"/>
<path d="M13.25 5C12.8359 5 12.5 4.66406 12.5 4.25C12.5 3.83691 12.1631 3.5 11.75 3.5C11.3359 3.5 11 3.16406 11 2.75C11 2.33594 11.3359 2 11.75 2C12.9902 2 14 3.00977 14 4.25C14 4.66406 13.6641 5 13.25 5Z" fill="#292929"/>
<path d="M9 3.5H7C6.58594 3.5 6.25 3.16406 6.25 2.75C6.25 2.33594 6.58594 2 7 2H9C9.41406 2 9.75 2.33594 9.75 2.75C9.75 3.16406 9.41406 3.5 9 3.5Z" fill="#292929"/>
<path d="M9 14H8.25C7.83594 14 7.5 13.6641 7.5 13.25C7.5 12.8359 7.83594 12.5 8.25 12.5H9C9.41406 12.5 9.75 12.8359 9.75 13.25C9.75 13.6641 9.41406 14 9 14Z" fill="#292929"/>
<path d="M2.75 5C2.33594 5 2 4.66406 2 4.25C2 3.00977 3.00977 2 4.25 2C4.66406 2 5 2.33594 5 2.75C5 3.16406 4.66406 3.5 4.25 3.5C3.83691 3.5 3.5 3.83691 3.5 4.25C3.5 4.66406 3.16406 5 2.75 5Z" fill="#292929"/>
<path d="M13.25 9.75C12.8359 9.75 12.5 9.41406 12.5 9V7C12.5 6.58594 12.8359 6.25 13.25 6.25C13.6641 6.25 14 6.58594 14 7V9C14 9.41406 13.6641 9.75 13.25 9.75Z" fill="#292929"/>
<path d="M11.75 14C11.3359 14 11 13.6641 11 13.25C11 12.8359 11.3359 12.5 11.75 12.5C12.1631 12.5 12.5 12.1631 12.5 11.75C12.5 11.3359 12.8359 11 13.25 11C13.6641 11 14 11.3359 14 11.75C14 12.9902 12.9902 14 11.75 14Z" fill="#292929"/>
<path d="M6.53612 11.5927L4.59178 9.64742C4.29881 9.35543 3.8242 9.35347 3.53123 9.64742C3.23826 9.94039 3.23826 10.415 3.53123 10.708L4.17918 11.3564H4.12596C3.49022 11.415 2.86912 11.1299 2.45116 10.6328C2.10155 10.2168 1.93554 9.68844 1.98241 9.14743C2.03026 8.60544 2.28514 8.11423 2.70214 7.76462C3.01952 7.499 3.06054 7.02536 2.79394 6.70798C2.52734 6.38962 2.05371 6.34958 1.7373 6.61618C1.01367 7.2236 0.570311 8.07614 0.488281 9.01657C0.406251 9.957 0.695311 10.874 1.30273 11.5976C1.97363 12.3974 2.97753 12.8613 3.98144 12.8603C4.04394 12.8603 4.10546 12.8593 4.16796 12.8554H4.21288L3.53124 13.5371C3.23827 13.8301 3.23827 14.3047 3.53124 14.5976C3.67772 14.7441 3.86913 14.8174 4.06151 14.8174C4.25389 14.8174 4.4453 14.7441 4.59178 14.5976L6.53612 12.6533C6.82909 12.3603 6.82909 11.8857 6.53612 11.5927Z" fill="#292929"/>
</svg>
