<svg xmlns="http://www.w3.org/2000/svg" width="20" height="20" viewBox="6 6 20 20">
  <path d="M17.75 24H10.25C9.00977 24 8 22.9902 8 21.75V14.25C8 13.0098 9.00977 12 10.25 12C10.6641 12 11 12.3359 11 12.75C11 13.1641 10.6641 13.5 10.25 13.5C9.83691 13.5 9.5 13.8369 9.5 14.25V21.75C9.5 22.1631 9.83691 22.5 10.25 22.5H17.75C18.1631 22.5 18.5 22.1631 18.5 21.75C18.5 21.3359 18.8359 21 19.25 21C19.6641 21 20 21.3359 20 21.75C20 22.9902 18.9902 24 17.75 24Z" fill="#292929"/>
  <path d="M12.75 11C12.3359 11 12 10.6641 12 10.25C12 9.00977 13.0098 8 14.25 8C14.6641 8 15 8.33594 15 8.75C15 9.16406 14.6641 9.5 14.25 9.5C13.8369 9.5 13.5 9.83691 13.5 10.25C13.5 10.6641 13.1641 11 12.75 11Z" fill="#292929"/>
  <path d="M19 9.5H17C16.5859 9.5 16.25 9.16406 16.25 8.75C16.25 8.33594 16.5859 8 17 8H19C19.4141 8 19.75 8.33594 19.75 8.75C19.75 9.16406 19.4141 9.5 19 9.5Z" fill="#292929"/>
  <path d="M19 20H17C16.5859 20 16.25 19.6641 16.25 19.25C16.25 18.8359 16.5859 18.5 17 18.5H19C19.4141 18.5 19.75 18.8359 19.75 19.25C19.75 19.6641 19.4141 20 19 20Z" fill="#292929"/>
  <path d="M21.75 20C21.3359 20 21 19.6641 21 19.25C21 18.8359 21.3359 18.5 21.75 18.5C22.1631 18.5 22.5 18.1631 22.5 17.75C22.5 17.3359 22.8359 17 23.25 17C23.6641 17 24 17.3359 24 17.75C24 18.9902 22.9902 20 21.75 20Z" fill="#292929"/>
  <path d="M23.25 11C22.8359 11 22.5 10.6641 22.5 10.25C22.5 9.83691 22.1631 9.5 21.75 9.5C21.3359 9.5 21 9.16406 21 8.75C21 8.33594 21.3359 8 21.75 8C22.9902 8 24 9.00977 24 10.25C24 10.6641 23.6641 11 23.25 11Z" fill="#292929"/>
  <path d="M23.25 15.75C22.8359 15.75 22.5 15.4141 22.5 15V13C22.5 12.5859 22.8359 12.25 23.25 12.25C23.6641 12.25 24 12.5859 24 13V15C24 15.4141 23.6641 15.75 23.25 15.75Z" fill="#292929"/>
  <path d="M12.75 15.75C12.3359 15.75 12 15.4141 12 15V13C12 12.5859 12.3359 12.25 12.75 12.25C13.1641 12.25 13.5 12.5859 13.5 13V15C13.5 15.4141 13.1641 15.75 12.75 15.75Z" fill="#292929"/>
  <path d="M14.25 20C13.0098 20 12 18.9902 12 17.75C12 17.3359 12.3359 17 12.75 17C13.1641 17 13.5 17.3359 13.5 17.75C13.5 18.1631 13.8369 18.5 14.25 18.5C14.6641 18.5 15 18.8359 15 19.25C15 19.6641 14.6641 20 14.25 20Z" fill="#292929"/>
</svg>
