<svg width="20" height="20" viewBox="0 0 20 20" fill="none" xmlns="http://www.w3.org/2000/svg">
<path d="M7 5.75C7.82843 5.75 8.5 5.07843 8.5 4.25C8.5 3.42157 7.82843 2.75 7 2.75C6.17157 2.75 5.5 3.42157 5.5 4.25C5.5 5.07843 6.17157 5.75 7 5.75Z" fill="#292929"/>
<path d="M7 11.2502C7.82843 11.2502 8.5 10.5787 8.5 9.75024C8.5 8.92182 7.82843 8.25024 7 8.25024C6.17157 8.25024 5.5 8.92182 5.5 9.75024C5.5 10.5787 6.17157 11.2502 7 11.2502Z" fill="#292929"/>
<path d="M7 16.75C7.82843 16.75 8.5 16.0784 8.5 15.25C8.5 14.4216 7.82843 13.75 7 13.75C6.17157 13.75 5.5 14.4216 5.5 15.25C5.5 16.0784 6.17157 16.75 7 16.75Z" fill="#292929"/>
<path d="M13 5.75C13.8284 5.75 14.5 5.07843 14.5 4.25C14.5 3.42157 13.8284 2.75 13 2.75C12.1716 2.75 11.5 3.42157 11.5 4.25C11.5 5.07843 12.1716 5.75 13 5.75Z" fill="#292929"/>
<path d="M13 11.2502C13.8284 11.2502 14.5 10.5787 14.5 9.75024C14.5 8.92182 13.8284 8.25024 13 8.25024C12.1716 8.25024 11.5 8.92182 11.5 9.75024C11.5 10.5787 12.1716 11.2502 13 11.2502Z" fill="#292929"/>
<path d="M13 16.75C13.8284 16.75 14.5 16.0784 14.5 15.25C14.5 14.4216 13.8284 13.75 13 13.75C12.1716 13.75 11.5 14.4216 11.5 15.25C11.5 16.0784 12.1716 16.75 13 16.75Z" fill="#292929"/>
</svg>
