<svg width="22" height="22" viewBox="0 0 22 22" fill="none" xmlns="http://www.w3.org/2000/svg">
<path d="M7.42495 19.8H4.67495C3.3107 19.8 2.19995 18.6892 2.19995 17.325V14.575C2.19995 13.2107 3.3107 12.1 4.67495 12.1H7.42495C8.7892 12.1 9.89995 13.2107 9.89995 14.575V17.325C9.89995 18.6892 8.7892 19.8 7.42495 19.8ZM4.67495 13.75C4.22055 13.75 3.84995 14.1206 3.84995 14.575V17.325C3.84995 17.7794 4.22055 18.15 4.67495 18.15H7.42495C7.87935 18.15 8.24995 17.7794 8.24995 17.325V14.575C8.24995 14.1206 7.87935 13.75 7.42495 13.75H4.67495Z" fill="#292929"/>
<path d="M7.42495 9.90001H4.67495C3.3107 9.90001 2.19995 8.78927 2.19995 7.42501V4.67501C2.19995 3.31076 3.3107 2.20001 4.67495 2.20001H7.42495C8.7892 2.20001 9.89995 3.31076 9.89995 4.67501V7.42501C9.89995 8.78927 8.7892 9.90001 7.42495 9.90001ZM4.67495 3.85001C4.22055 3.85001 3.84995 4.22061 3.84995 4.67501V7.42501C3.84995 7.87941 4.22055 8.25001 4.67495 8.25001H7.42495C7.87935 8.25001 8.24995 7.87941 8.24995 7.42501V4.67501C8.24995 4.22061 7.87935 3.85001 7.42495 3.85001H4.67495Z" fill="#292929"/>
<path d="M17.3251 9.90001H14.5751C13.2108 9.90001 12.1001 8.78927 12.1001 7.42501V4.67501C12.1001 3.31076 13.2108 2.20001 14.5751 2.20001H17.3251C18.6894 2.20001 19.8001 3.31076 19.8001 4.67501V7.42501C19.8001 8.78927 18.6894 9.90001 17.3251 9.90001ZM14.5751 3.85001C14.1207 3.85001 13.7501 4.22061 13.7501 4.67501V7.42501C13.7501 7.87941 14.1207 8.25001 14.5751 8.25001H17.3251C17.7795 8.25001 18.1501 7.87941 18.1501 7.42501V4.67501C18.1501 4.22061 17.7795 3.85001 17.3251 3.85001H14.5751Z" fill="#292929"/>
<path d="M6.8751 5.22498H5.2251V6.87498H6.8751V5.22498Z" fill="#292929"/>
<path d="M16.775 5.22498H15.125V6.87498H16.775V5.22498Z" fill="#292929"/>
<path d="M6.8751 15.125H5.2251V16.775H6.8751V15.125Z" fill="#292929"/>
<path d="M16.4999 15.4H15.3999V16.5H16.4999V15.4Z" fill="#292929"/>
<path d="M15.4 13.2H13.2V15.4H15.4V13.2Z" fill="#292929"/>
<path d="M18.7001 13.2H17.6001V14.3H18.7001V13.2Z" fill="#292929"/>
<path d="M14.3 17.6H13.2V18.7H14.3V17.6Z" fill="#292929"/>
<path d="M18.7 16.5H16.5V18.7H18.7V16.5Z" fill="#292929"/>
</svg>
