<svg width="22" height="22" viewBox="0 0 22 22" fill="none" xmlns="http://www.w3.org/2000/svg">
<path d="M14.8801 11.5403L11.5774 8.24243C11.2551 7.92017 10.7336 7.92017 10.4113 8.24243L7.11401 11.5403C6.79175 11.8626 6.79175 12.3846 7.11401 12.7069C7.27514 12.868 7.48623 12.9486 7.69731 12.9486C7.90839 12.9486 8.11948 12.868 8.28061 12.7069L10.175 10.8125V19.8107C10.175 20.2662 10.5445 20.6357 11 20.6357C11.4555 20.6357 11.825 20.2662 11.825 19.8107V10.8206L13.7145 12.7069C14.0368 13.0292 14.5589 13.0292 14.8811 12.7069C15.2029 12.3846 15.2029 11.8615 14.8801 11.5403Z" fill="#292929"/>
<path d="M17.325 18.7H14.2462C13.7908 18.7 13.4212 18.3305 13.4212 17.875C13.4212 17.4195 13.7908 17.05 14.2462 17.05H17.325C17.7799 17.05 18.15 16.6794 18.15 16.225V4.67501C18.15 4.22061 17.7799 3.85001 17.325 3.85001H4.67495C4.22002 3.85001 3.84995 4.22061 3.84995 4.67501V16.225C3.84995 16.6794 4.22002 17.05 4.67495 17.05H7.6731C8.12857 17.05 8.4981 17.4195 8.4981 17.875C8.4981 18.3305 8.12857 18.7 7.6731 18.7H4.67495C3.31016 18.7 2.19995 17.5893 2.19995 16.225V4.67501C2.19995 3.31076 3.31016 2.20001 4.67495 2.20001H17.325C18.6897 2.20001 19.8 3.31076 19.8 4.67501V16.225C19.8 17.5893 18.6897 18.7 17.325 18.7Z" fill="#292929"/>
</svg>
