<svg width="22" height="22" viewBox="0 0 22 22" fill="none" xmlns="http://www.w3.org/2000/svg">
<g clip-path="url(#clip0_16024_62313)">
<path fill-rule="evenodd" clip-rule="evenodd" d="M21.0757 10.5604C19.8432 9.33177 17.8384 9.33079 16.6059 10.5613L9.93799 17.2337C9.75049 17.4212 9.646 17.6742 9.64502 17.9388L9.63916 20.9908C9.63818 21.5426 10.0845 21.9919 10.6372 21.9928L13.6987 21.9997H13.7007C13.9663 21.9997 14.2202 21.8942 14.4077 21.7067L21.0766 15.0363C21.0854 15.0275 21.0952 15.0168 21.1059 15.006C22.3091 13.7716 22.2973 11.7821 21.0757 10.5604ZM19.6626 11.9755C20.1128 12.4257 20.1157 13.1611 19.6626 13.6221L19.5066 13.7781L17.8626 12.133L18.019 11.9765C18.4721 11.5233 19.2095 11.5243 19.6626 11.9755ZM12.7957 17.2034L16.449 13.5476L18.0925 15.1925L14.438 18.8478C14.0664 18.1468 13.4963 17.576 12.7957 17.2034ZM11.6431 18.8588C12.1677 19.0578 12.582 19.4726 12.7805 19.9973L11.6411 19.9946L11.6431 18.8588Z" fill="#292929"/>
<path d="M15.5 9C16.3284 9 17 8.32843 17 7.5C17 6.67157 16.3284 6 15.5 6C14.6716 6 14 6.67157 14 7.5C14 8.32843 14.6716 9 15.5 9Z" fill="#292929"/>
<path fill-rule="evenodd" clip-rule="evenodd" d="M16 2H6C3.24316 2 1 4.24316 1 7V15C1 17.7568 3.24316 20 6 20H6.94629C7.49902 20 7.94629 19.5527 7.94629 19C7.94629 18.4473 7.49902 18 6.94629 18H6C4.35059 18 3.00952 16.6621 3.00146 15.0144C3.07202 14.9726 3.14636 14.9385 3.20703 14.8779L7.01269 11.0723C7.10937 10.9766 7.26464 10.9766 7.36328 11.0723L9.53711 13.2461C9.92773 13.6367 10.5605 13.6367 10.9512 13.2461C11.3418 12.8555 11.3418 12.2227 10.9512 11.832L8.77734 9.65821C7.90136 8.78223 6.47656 8.78028 5.59863 9.65821L3 12.2568V7C3 5.3457 4.3457 4 6 4H16C17.6543 4 19 5.3457 19 7C19 7.55273 19.4473 8 20 8C20.5527 8 21 7.55273 21 7C21 4.24316 18.7568 2 16 2Z" fill="#292929"/>
</g>
<defs>
<clipPath id="clip0_16024_62313">
<rect width="22" height="22" fill="white"/>
</clipPath>
</defs>
</svg>
