<svg width="20" height="20" viewBox="0 0 20 20" fill="none" xmlns="http://www.w3.org/2000/svg">
<path d="M17.7811 1.7569C16.5092 0.715884 14.5541 0.858464 13.3309 2.08014L3.07802 12.334C2.75771 12.6534 2.51943 13.0508 2.38906 13.4844L1.00478 18.0684C0.924699 18.3331 0.996969 18.6202 1.19228 18.8155C1.33486 18.9581 1.52675 19.0352 1.72255 19.0352C1.79482 19.0352 1.86806 19.0245 1.93935 19.003L6.52187 17.6192C6.95546 17.4893 7.35341 17.251 7.67275 16.9307C7.67275 16.9307 17.8412 6.76274 18.0282 6.57524C18.6762 5.92778 19.0214 5.03032 18.976 4.11528C18.9301 3.20024 18.4945 2.33991 17.7811 1.7569ZM2.84511 17.1632L3.82509 13.9171C3.85225 13.8267 3.89223 13.7413 3.93886 13.6597L6.34755 16.0689C6.26601 16.1153 6.18037 16.1554 6.08974 16.1827L2.84511 17.1632ZM16.9667 5.51569C16.812 5.67121 9.86684 12.6158 7.44124 15.0416L4.96663 12.5665L14.3915 3.14068C14.7777 2.75396 15.2875 2.55474 15.7811 2.55474C16.162 2.55474 16.5336 2.67388 16.8314 2.91704C17.223 3.23833 17.4525 3.6895 17.4774 4.1895C17.5023 4.68266 17.3163 5.16608 16.9667 5.51569Z" fill="#292929"/>
</svg>
