<svg width="20" height="20" viewBox="0 0 20 20" fill="none" xmlns="http://www.w3.org/2000/svg">
<path d="M10.469 7.11877L6.97235 5.24497C6.30617 4.88798 5.5 5.37059 5.5 6.1264V9.87399C5.5 10.6298 6.30617 11.1124 6.97234 10.7554L10.469 8.88161C11.1725 8.50459 11.1725 7.49579 10.469 7.11877Z" fill="#292929"/>
<path d="M8.50586 15H3.25C2.00977 15 1 13.9902 1 12.75V3.25C1 2.00977 2.00977 1 3.25 1H12.75C13.9902 1 15 2.00977 15 3.25V8.17578C15 8.58984 14.6641 8.92578 14.25 8.92578C13.8359 8.92578 13.5 8.58984 13.5 8.17578V3.25C13.5 2.83691 13.1631 2.5 12.75 2.5H3.25C2.83691 2.5 2.5 2.83691 2.5 3.25V12.75C2.5 13.1631 2.83691 13.5 3.25 13.5H8.50586C8.91992 13.5 9.25586 13.8359 9.25586 14.25C9.25586 14.6641 8.91992 15 8.50586 15Z" fill="#292929"/>
<path d="M18.5878 10.0615C17.621 9.26757 16.1356 9.37402 15.2079 10.2998L11.0253 14.4834C10.7782 14.7305 10.5946 15.0371 10.4921 15.373L9.53798 18.5332C9.4579 18.7979 9.53017 19.085 9.72548 19.2803C9.86806 19.4229 10.0595 19.5 10.2558 19.5C10.328 19.5 10.4013 19.4893 10.4726 19.4678L13.6317 18.5147C13.9667 18.4141 14.2743 18.2295 14.5224 17.9815L18.7753 13.7285C19.2684 13.2354 19.5321 12.5518 19.497 11.8555C19.4618 11.1592 19.1308 10.5049 18.5878 10.0615ZM11.3778 17.6279L11.9276 15.8086C11.9402 15.7664 11.973 15.7363 11.9934 15.6987L13.3079 17.0132C13.2704 17.0332 13.2399 17.0657 13.1991 17.0781L11.3778 17.6279ZM17.7147 12.668L14.2235 16.1592L12.8471 14.7827L16.2685 11.3604C16.4901 11.1387 16.7812 11.0244 17.0614 11.0244C17.2714 11.0244 17.4755 11.0889 17.6386 11.2227C17.8573 11.4004 17.9853 11.6524 17.9989 11.9297C18.0126 12.209 17.912 12.4707 17.7147 12.668Z" fill="#292929"/>
</svg>
