<svg width="20" height="20" viewBox="0 0 20 20" fill="none" xmlns="http://www.w3.org/2000/svg">
<path d="M15.75 2H4.25C3.00928 2 2 3.00977 2 4.25V15.75C2 16.9902 3.00928 18 4.25 18H15.75C16.9907 18 18 16.9902 18 15.75V4.25C18 3.00977 16.9907 2 15.75 2ZM16.5 4.25V6.875H13.125V3.5H15.75C16.1636 3.5 16.5 3.83691 16.5 4.25ZM8.125 11.875V8.125H11.875V11.875H8.125ZM11.875 13.125V16.5H8.125V13.125H11.875ZM6.875 11.875H3.5V8.125H6.875V11.875ZM8.125 6.875V3.5H11.875V6.875H8.125ZM13.125 8.125H16.5V11.875H13.125V8.125ZM4.25 3.5H6.875V6.875H3.5V4.25C3.5 3.83691 3.83643 3.5 4.25 3.5ZM3.5 15.75V13.125H6.875V16.5H4.25C3.83643 16.5 3.5 16.1631 3.5 15.75ZM15.75 16.5H13.125V13.125H16.5V15.75C16.5 16.1631 16.1636 16.5 15.75 16.5Z" fill="#292929"/>
</svg>
