<svg width="20" height="20" viewBox="0 0 20 20" fill="none" xmlns="http://www.w3.org/2000/svg">
<path d="M8.99907 18.7285C8.63969 18.7285 8.28227 18.6304 7.96196 18.4356C7.35942 18.0698 7.00005 17.4307 7.00005 16.7261V10.4902C7.00005 10.3042 6.93169 10.1265 6.80767 9.98878L2.62798 5.34521C2.08989 4.75488 1.95415 3.92871 2.27935 3.19287C2.60357 2.45703 3.30474 2 4.10943 2H15.8907C16.6954 2 17.3965 2.45703 17.7208 3.19287C18.046 3.92871 17.9102 4.75488 17.3682 5.34863L13.1924 9.98877C13.0684 10.1265 13.0001 10.3042 13.0001 10.4902V15.5356C13.0001 16.3794 12.5352 17.1445 11.7872 17.5327L9.92194 18.501C9.62995 18.6528 9.31352 18.7285 8.99907 18.7285ZM4.10943 3.5C3.81451 3.5 3.69146 3.7085 3.65142 3.79834C3.61138 3.88818 3.54107 4.12012 3.73931 4.33789L7.9229 8.98486C8.29497 9.39843 8.50005 9.9331 8.50005 10.4902V16.7261C8.50005 16.98 8.66802 17.1094 8.74028 17.1533C8.81255 17.1978 9.0059 17.2856 9.23051 17.1699L11.0957 16.2012C11.3457 16.0718 11.5 15.8169 11.5 15.5356V10.4902C11.5 9.9331 11.7051 9.39843 12.0772 8.98486L16.2569 4.34131C16.459 4.12012 16.3887 3.88819 16.3487 3.79834C16.3086 3.70849 16.1856 3.5 15.8907 3.5H4.10943Z" fill="#292929"/>
</svg>
