<svg width="32" height="32" viewBox="0 0 32 32" fill="none" xmlns="http://www.w3.org/2000/svg">
<g clip-path="url(#clip0_5596_448155)">
<mask id="mask0_5596_448155" style="mask-type:alpha" maskUnits="userSpaceOnUse" x="6" y="6" width="20" height="20">
<path d="M23.7811 7.75684C22.5092 6.71582 20.5541 6.8584 19.3309 8.08008L9.07802 18.334C8.75771 18.6533 8.51943 19.0508 8.38906 19.4844L7.00478 24.0684C6.9247 24.333 6.99697 24.6201 7.19228 24.8154C7.33486 24.958 7.52675 25.0352 7.72255 25.0352C7.79482 25.0352 7.86806 25.0244 7.93935 25.0029L12.5219 23.6191C12.9555 23.4893 13.3534 23.251 13.6727 22.9307C13.6727 22.9307 23.8412 12.7627 24.0282 12.5752C24.6762 11.9277 25.0214 11.0303 24.976 10.1152C24.9301 9.20018 24.4945 8.33985 23.7811 7.75684ZM8.84511 23.1631L9.82509 19.917C9.85225 19.8267 9.89223 19.7412 9.93886 19.6597L12.3475 22.0689C12.266 22.1153 12.1804 22.1553 12.0897 22.1826L8.84511 23.1631ZM22.9667 11.5156C22.812 11.6712 15.8668 18.6157 13.4412 21.0415L10.9666 18.5664L20.3915 9.14062C20.7777 8.7539 21.2875 8.55468 21.7811 8.55468C22.162 8.55468 22.5336 8.67382 22.8314 8.91698C23.223 9.23827 23.4525 9.68944 23.4774 10.1894C23.5023 10.6826 23.3163 11.166 22.9667 11.5156Z" fill="#292929"/>
</mask>
<g mask="url(#mask0_5596_448155)">
<rect x="6" y="6" width="20" height="20" fill="#292929"/>
</g>
</g>
<defs>
<clipPath id="clip0_5596_448155">
<rect width="32" height="32" rx="8" fill="white"/>
</clipPath>
</defs>
</svg>
