<svg width="32" height="32" viewBox="0 0 32 32" fill="none" xmlns="http://www.w3.org/2000/svg">
<g clip-path="url(#clip0_5596_448156)">
<mask id="mask0_5596_448156" style="mask-type:alpha" maskUnits="userSpaceOnUse" x="6" y="6" width="20" height="20">
<path d="M24 21.75V10.25C24 9.00928 22.9907 8 21.75 8H10.25C9.00928 8 8 9.00928 8 10.25V13.9678C8 14.3818 8.33594 14.7178 8.75 14.7178C9.16406 14.7178 9.5 14.3818 9.5 13.9678V10.25C9.5 9.83643 9.83643 9.5 10.25 9.5H21.75C22.1636 9.5 22.5 9.83643 22.5 10.25V21.75C22.5 22.1636 22.1636 22.5 21.75 22.5H17.939C17.5249 22.5 17.189 22.8359 17.189 23.25C17.189 23.6641 17.5249 24 17.939 24H21.75C22.9907 24 24 22.9907 24 21.75Z" fill="#292929"/>
<path d="M17 15.75V19.9927C17 20.4067 16.6641 20.7427 16.25 20.7427C15.8359 20.7427 15.5 20.4067 15.5 19.9927V17.5605L9.03027 24.0303C8.88379 24.1768 8.69189 24.25 8.5 24.25C8.30811 24.25 8.11621 24.1768 7.96973 24.0303C7.67676 23.7373 7.67676 23.2627 7.96973 22.9697L14.4395 16.5H12.0073C11.5933 16.5 11.2573 16.1641 11.2573 15.75C11.2573 15.3359 11.5933 15 12.0073 15H16.25C16.6641 15 17 15.3359 17 15.75Z" fill="#292929"/>
</mask>
<g mask="url(#mask0_5596_448156)">
<rect x="6" y="6" width="20" height="20" fill="#292929"/>
</g>
</g>
<defs>
<clipPath id="clip0_5596_448156">
<rect width="32" height="32" rx="8" fill="white"/>
</clipPath>
</defs>
</svg>
