<svg width="140" height="140" viewBox="0 0 140 140" fill="none" xmlns="http://www.w3.org/2000/svg">
<path d="M117.7 119.2C115.9 119.2 114.2 118.5 112.8 117.2L83.8 88.1999C82.8 87.1999 82.8 85.5999 83.8 84.6999L90.6 77.8999C91.6 76.8999 93.2 76.8999 94.1 77.8999L123.1 106.9C125.8 109.6 125.8 113.9 123.2 116.6L122.6 117.2C121.2 118.6 119.4 119.2 117.7 119.2ZM86.2 86.3999L114.9 115.1C116.4 116.6 118.9 116.6 120.4 115.1L121 114.5C122.5 113 122.5 110.5 121 109L92.3 80.3999L86.2 86.3999Z" fill="#292929"/>
<path d="M86.1 86.0999C85.8 86.0999 85.6 85.9999 85.4 85.7999L81.9 82.2999C81.5 81.8999 81.5 81.2999 81.9 80.8999C82.3 80.4999 82.9 80.4999 83.3 80.8999L86.8 84.3999C87.2 84.7999 87.2 85.3999 86.8 85.7999C86.6 85.9999 86.3 86.0999 86.1 86.0999Z" fill="#292929"/>
<path d="M91.1 81.0999C90.8 81.0999 90.6 80.9999 90.4 80.7999L86.9 77.2999C86.5 76.8999 86.5 76.2999 86.9 75.8999C87.3 75.4999 87.9 75.4999 88.3 75.8999L91.8 79.3999C92.2 79.7999 92.2 80.3999 91.8 80.7999C91.6 80.9999 91.4 81.0999 91.1 81.0999Z" fill="#292929"/>
<path d="M105.4 102.4C105.1 102.4 104.9 102.3 104.7 102.1L90.4 87.7C90 87.3 90 86.7 90.4 86.3C90.8 85.9 91.4 85.9 91.8 86.3L106.2 100.7C106.6 101.1 106.6 101.7 106.2 102.1C106 102.3 105.7 102.4 105.4 102.4Z" fill="#292929"/>
<path d="M60.9 85.8999C52 85.8999 43.1 82.2999 36.6 75.0999C36 74.5 36.1 73.5 36.7 73C37.3 72.4 38.3 72.5 38.8 73.0999C49.7 85.2 68.5 86.2 80.6 75.3C92.7 64.4 93.7 45.6 82.8 33.5C77.2 27.3 69.2 23.7 60.8 23.7C50.9 23.7 41.7 28.2 36.7 35.5C36.2 36.2 35.3 36.4 34.6 35.9C33.9 35.4 33.7 34.4999 34.2 33.7999C39.7 25.6999 49.9 20.7 60.8 20.7C70 20.7 78.9 24.6 85 31.5C97 44.9 95.9 65.5 82.5 77.5C76.5 83.2 68.7 85.8999 60.9 85.8999Z" fill="#292929"/>
<path d="M32.8 71.1001C41.9127 71.1001 49.3 63.7128 49.3 54.6001C49.3 45.4874 41.9127 38.1001 32.8 38.1001C23.6873 38.1001 16.3 45.4874 16.3 54.6001C16.3 63.7128 23.6873 71.1001 32.8 71.1001Z" fill="#ACCFFD"/>
<path d="M25.1 63.9C24.7 63.9 24.3 63.7999 24 63.5C23.4 62.9 23.4 62 24 61.4L39.5 45.9C40.1 45.3 41 45.3 41.6 45.9C42.2 46.5 42.2 47.3999 41.6 47.9999L26.2 63.4C25.9 63.7 25.5 63.9 25.1 63.9Z" fill="#3B63FB"/>
<path d="M40.6 63.9001C40.2 63.9001 39.8 63.8001 39.5 63.5001L24 47.9001C23.4 47.3001 23.4 46.4001 24 45.8001C24.6 45.2001 25.5 45.2001 26.1 45.8001L41.6 61.3001C42.2 61.9001 42.2 62.8001 41.6 63.4001C41.4 63.7001 41 63.9001 40.6 63.9001Z" fill="#3B63FB"/>
</svg>
