<svg width="32" height="32" viewBox="0 0 32 32" fill="none" xmlns="http://www.w3.org/2000/svg">
<g clip-path="url(#clip0_0_7755)">
<rect width="32" height="32" rx="8" fill="#E1E1E1"/>
<mask id="mask0_0_7755" style="mask-type:alpha" maskUnits="userSpaceOnUse" x="6" y="6" width="20" height="20">
<path d="M8.75 21C8.33594 21 8 20.6641 8 20.25V10.25C8 9.00977 9.00928 8 10.25 8H20.25C20.6641 8 21 8.33594 21 8.75C21 9.16406 20.6641 9.5 20.25 9.5H10.25C9.83643 9.5 9.5 9.83691 9.5 10.25V20.25C9.5 20.6641 9.16406 21 8.75 21Z" fill="#292929"/>
<path d="M21.6299 11H13.3701C12.063 11 11 12.0635 11 13.3701V21.6299C11 22.9365 12.063 24 13.3701 24H21.6299C22.937 24 24 22.9365 24 21.6299V13.3701C24 12.0635 22.937 11 21.6299 11ZM22.5 21.6299C22.5 22.1094 22.1099 22.5 21.6299 22.5H13.3701C12.8901 22.5 12.5 22.1094 12.5 21.6299V13.3701C12.5 12.8906 12.8901 12.5 13.3701 12.5H17V16.6343C17 16.9907 17.4309 17.1692 17.6829 16.917L18.7172 15.8828C18.8734 15.7266 19.1266 15.7266 19.2828 15.8828L20.3171 16.917C20.5691 17.1692 21 16.9907 21 16.6343V12.5H21.6299C22.1098 12.5 22.5 12.8906 22.5 13.3701L22.5 21.6299Z" fill="#292929"/>
</mask>
<g mask="url(#mask0_0_7755)">
<rect x="6" y="6" width="20" height="20" fill="#131313"/>
</g>
</g>
<defs>
<clipPath id="clip0_0_7755">
<rect width="32" height="32" rx="8" fill="white"/>
</clipPath>
</defs>
</svg>
