<svg width="9" height="11" viewBox="0 0 9 11" fill="none" xmlns="http://www.w3.org/2000/svg">
<path d="M4.3233 11C6.78794 11 8.64661 9.25857 8.64661 6.94988C8.64661 5.22036 7.23597 3.36567 5.99173 1.73052C5.61076 1.22984 5.24816 0.754003 4.95809 0.318885C4.67497 -0.106295 3.97164 -0.106295 3.68852 0.318885C3.39844 0.753993 3.03585 1.22984 2.65488 1.73052C1.41064 3.36567 0 5.22036 0 6.94988C0 9.25856 1.85866 11 4.3233 11ZM3.86931 2.6544C4.02478 2.44976 4.17726 2.24908 4.3233 2.05339C4.46932 2.24908 4.62182 2.44976 4.77729 2.6544C5.82136 4.02629 7.12073 5.73396 7.12073 6.9499C7.12073 8.41219 5.94404 9.47415 4.3233 9.47415C2.70256 9.47415 1.52586 8.41219 1.52586 6.9499C1.52586 5.73397 2.82524 4.0263 3.86931 2.6544Z" fill="#292929"/>
</svg>
