<svg width="32" height="32" viewBox="0 0 32 32" fill="none" xmlns="http://www.w3.org/2000/svg">
<g clip-path="url(#clip0_0_7714)">
<mask id="mask0_0_7714" style="mask-type:alpha" maskUnits="userSpaceOnUse" x="6" y="6" width="20" height="20">
<path d="M21 19.25C20.2319 19.25 19.5383 19.568 19.0389 20.0773L12.6821 16.5919C12.7244 16.4008 12.75 16.2036 12.75 16C12.75 15.7964 12.7244 15.5992 12.6821 15.4081L19.0389 11.9227C19.5383 12.432 20.2319 12.75 21 12.75C22.5166 12.75 23.75 11.5166 23.75 10C23.75 8.4834 22.5166 7.25 21 7.25C19.4834 7.25 18.25 8.4834 18.25 10C18.25 10.207 18.2772 10.407 18.3208 10.6011L11.9697 14.0876C11.4696 13.5727 10.7729 13.25 10 13.25C8.4834 13.25 7.25 14.4834 7.25 16C7.25 17.5166 8.4834 18.75 10 18.75C10.7729 18.75 11.4696 18.4272 11.9697 17.9123L18.3208 21.3989C18.2772 21.593 18.25 21.7929 18.25 22C18.25 23.5166 19.4834 24.75 21 24.75C22.5166 24.75 23.75 23.5166 23.75 22C23.75 20.4834 22.5166 19.25 21 19.25ZM21 8.75C21.6895 8.75 22.25 9.31055 22.25 10C22.25 10.6895 21.6895 11.25 21 11.25C20.3105 11.25 19.75 10.6895 19.75 10C19.75 9.31055 20.3105 8.75 21 8.75ZM8.75 16C8.75 15.3105 9.31055 14.75 10 14.75C10.6895 14.75 11.25 15.3105 11.25 16C11.25 16.6895 10.6895 17.25 10 17.25C9.31055 17.25 8.75 16.6895 8.75 16ZM21 23.25C20.3105 23.25 19.75 22.6895 19.75 22C19.75 21.3105 20.3105 20.75 21 20.75C21.6895 20.75 22.25 21.3105 22.25 22C22.25 22.6895 21.6895 23.25 21 23.25Z" fill="#292929"/>
</mask>
<g mask="url(#mask0_0_7714)">
<rect x="6" y="6" width="20" height="20" fill="#292929"/>
</g>
</g>
<defs>
<clipPath id="clip0_0_7714">
<rect width="32" height="32" rx="8" fill="white"/>
</clipPath>
</defs>
</svg>
