<svg width="16" height="16" viewBox="0 0 16 16" fill="none" xmlns="http://www.w3.org/2000/svg">
<path d="M8 15C4.13984 15 1 11.8602 1 8C1 4.13984 4.13984 1 8 1C11.8602 1 15 4.13984 15 8C15 11.8602 11.8602 15 8 15ZM8 2.2C4.80156 2.2 2.2 4.80156 2.2 8C2.2 11.1984 4.80156 13.8 8 13.8C11.1984 13.8 13.8 11.1984 13.8 8C13.8 4.80156 11.1984 2.2 8 2.2Z" fill="#292929"/>
<path d="M7.37828 10.8001C7.20875 10.8001 7.04625 10.7282 6.93219 10.6017L4.92359 8.36808C4.70172 8.12121 4.72203 7.7423 4.96812 7.52042C5.21421 7.29855 5.59312 7.31886 5.81578 7.56495L7.33062 9.25011L10.1205 5.44542C10.315 5.17824 10.6892 5.11808 10.9587 5.31652C11.2259 5.51183 11.2837 5.88762 11.0876 6.1548L7.86186 10.5548C7.75561 10.7009 7.58842 10.7907 7.40795 10.7993C7.39858 10.8001 7.38844 10.8001 7.37828 10.8001Z" fill="#292929"/>
</svg>
