<svg width="32" height="32" viewBox="0 0 32 32" fill="none" xmlns="http://www.w3.org/2000/svg">
<g clip-path="url(#clip0_0_7734)">
<mask id="mask0_0_7734" style="mask-type:alpha" maskUnits="userSpaceOnUse" x="6" y="6" width="20" height="20">
<path d="M19.5303 15.4268C19.2383 15.1348 18.7637 15.1328 18.4697 15.4268L16.7529 17.1409V8.75C16.7529 8.33594 16.417 8 16.0029 8C15.5889 8 15.2529 8.33594 15.2529 8.75V17.1494L13.5303 15.4268C13.2373 15.1338 12.7627 15.1338 12.4697 15.4268C12.1768 15.7197 12.1768 16.1943 12.4697 16.4873L15.4678 19.4853C15.6143 19.6318 15.8057 19.7051 15.998 19.7051C16.1895 19.7051 16.3818 19.6318 16.5283 19.4853L19.5303 16.4873C19.8232 16.1953 19.8233 15.7197 19.5303 15.4268Z" fill="#292929"/>
<path d="M21.75 24H10.25C9.00977 24 8 22.9902 8 21.75V19.7285C8 19.3145 8.33594 18.9785 8.75 18.9785C9.16406 18.9785 9.5 19.3145 9.5 19.7285V21.75C9.5 22.1631 9.83691 22.5 10.25 22.5H21.75C22.1631 22.5 22.5 22.1631 22.5 21.75V19.7285C22.5 19.3145 22.8359 18.9785 23.25 18.9785C23.6641 18.9785 24 19.3145 24 19.7285V21.75C24 22.9902 22.9902 24 21.75 24Z" fill="#292929"/>
</mask>
<g mask="url(#mask0_0_7734)">
<rect x="6" y="6" width="20" height="20" fill="#292929"/>
</g>
</g>
<defs>
<clipPath id="clip0_0_7734">
<rect width="32" height="32" rx="8" fill="white"/>
</clipPath>
</defs>
</svg>
