<svg width="18" height="18" viewBox="0 0 18 18" fill="none" xmlns="http://www.w3.org/2000/svg">
<path d="M18 6.42857V5.4C18 5.11599 17.7697 4.88571 17.4857 4.88571H16.9953C15.4984 1.98834 12.4801 0 9 0C5.51991 0 2.50162 1.98834 1.00472 4.88571H0.514286C0.230277 4.88571 0 5.11599 0 5.4V6.42857C0 6.62042 0.109615 6.78113 0.265299 6.86953C0.0981772 7.55408 0 8.26474 0 9C0 13.9631 4.03694 18 9 18C13.9631 18 18 13.9631 18 9C18 8.26474 17.9018 7.55382 17.7347 6.86953C17.8904 6.78113 18 6.62042 18 6.42857ZM9 1.54286C11.592 1.54286 13.8769 2.87327 15.2139 4.88571H2.78613C4.12307 2.87327 6.40798 1.54286 9 1.54286ZM13.3684 8.94073C13.2429 9.06629 13.0781 9.12857 12.9134 9.12857C12.7487 9.12857 12.5839 9.06629 12.4584 8.94073L10.9155 7.39788C10.6654 7.14676 10.6654 6.73895 10.9155 6.48783C11.1666 6.23671 11.5744 6.23671 11.8256 6.48783L13.3684 8.03068C13.6185 8.2818 13.6185 8.68961 13.3684 8.94073ZM2.63069 6.48784C2.88181 6.23672 3.28962 6.23672 3.54074 6.48784L5.0836 8.03069C5.33371 8.28181 5.33371 8.68962 5.0836 8.94074C4.95804 9.0663 4.79331 9.12858 4.62858 9.12858C4.46386 9.12858 4.29912 9.0663 4.17356 8.94074L2.63071 7.39789C2.3806 7.14677 2.38059 6.73896 2.63069 6.48784ZM9 16.4571C4.88772 16.4571 1.54286 13.1123 1.54286 9C1.54286 8.82648 1.55717 8.65648 1.56897 8.48571H2.31441V9C2.31441 9.28401 2.54469 9.51429 2.8287 9.51429H3.34286V10.0286C3.34286 10.3126 3.57313 10.5429 3.85714 10.5429H5.91429C6.1983 10.5429 6.42857 10.3126 6.42857 10.0286V9.51429H6.94286C7.22687 9.51429 7.45714 9.28401 7.45714 9V7.97143H7.97143C8.25544 7.97143 8.48571 7.74115 8.48571 7.45714V6.94286H9.51429V7.45714C9.51429 7.74115 9.74456 7.97143 10.0286 7.97143H10.5429V9C10.5429 9.28401 10.7731 9.51429 11.0571 9.51429H11.5714V10.0286C11.5714 10.3126 11.8017 10.5429 12.0857 10.5429H14.1429C14.4269 10.5429 14.6571 10.3126 14.6571 10.0286V9.51429H15.1713C15.4553 9.51429 15.6856 9.28401 15.6856 9V8.48571H16.431C16.4428 8.65648 16.4571 8.82648 16.4571 9C16.4571 13.1123 13.1123 16.4571 9 16.4571Z" fill="#292929"/>
</svg>
