<svg width="16" height="16" viewBox="0 0 16 16" fill="none" xmlns="http://www.w3.org/2000/svg">
<path d="M7.99929 12.0986C7.81477 12.1051 7.63499 12.0396 7.498 11.9159C7.23374 11.6242 7.23374 11.18 7.498 10.8883C7.63348 10.7616 7.81387 10.6941 7.99931 10.7005C8.18839 10.6929 8.37203 10.7647 8.50573 10.8985C8.63539 11.0326 8.70506 11.2135 8.69883 11.3999C8.70873 11.5877 8.64315 11.7716 8.51667 11.9108C8.3778 12.0425 8.19037 12.1105 7.99929 12.0986Z" fill="#292929"/>
<path d="M7.9999 9.4C7.66865 9.4 7.3999 9.13125 7.3999 8.8V5.6C7.3999 5.26875 7.66865 5 7.9999 5C8.33115 5 8.5999 5.26875 8.5999 5.6V8.8C8.5999 9.13125 8.33115 9.4 7.9999 9.4Z" fill="#292929"/>
<path d="M13.3867 14.4001H2.61323C1.973 14.4001 1.39487 14.072 1.06714 13.522C0.739402 12.972 0.725338 12.3071 1.03003 11.7438L6.41675 1.78604C6.73159 1.20401 7.33824 0.842285 7.99995 0.842285C8.66167 0.842285 9.26831 1.20401 9.58315 1.78604L14.9699 11.7439C15.2746 12.3071 15.2605 12.972 14.9328 13.522C14.605 14.072 14.0269 14.4001 13.3867 14.4001ZM7.99995 2.04229C7.89253 2.04229 7.62574 2.07276 7.47222 2.35635L2.0855 12.3142C1.93901 12.5853 2.04527 12.8196 2.09799 12.9071C2.15034 12.9954 2.30542 13.2001 2.61323 13.2001H13.3867C13.6945 13.2001 13.8496 12.9954 13.9019 12.9071C13.9546 12.8196 14.0609 12.5853 13.9144 12.3142L8.52769 2.35635C8.37418 2.07276 8.10738 2.04229 7.99995 2.04229Z" fill="#292929"/>
</svg>
