<svg width="20" height="20" viewBox="0 0 20 20" fill="none" xmlns="http://www.w3.org/2000/svg">
<path d="M13.5303 9.42676C13.2383 9.13477 12.7637 9.13281 12.4697 9.42676L10.7529 11.1409V2.75C10.7529 2.33594 10.417 2 10.0029 2C9.58888 2 9.25294 2.33594 9.25294 2.75V11.1494L7.53028 9.42675C7.23731 9.13378 6.7627 9.13378 6.46973 9.42675C6.17676 9.71972 6.17676 10.1943 6.46973 10.4873L9.46778 13.4853C9.61426 13.6318 9.80567 13.7051 9.99805 13.7051C10.1895 13.7051 10.3818 13.6318 10.5283 13.4853L13.5303 10.4873C13.8232 10.1953 13.8233 9.71973 13.5303 9.42676Z" fill="#292929"/>
<path d="M15.75 18H4.25C3.00977 18 2 16.9902 2 15.75V13.7285C2 13.3145 2.33594 12.9785 2.75 12.9785C3.16406 12.9785 3.5 13.3145 3.5 13.7285V15.75C3.5 16.1631 3.83691 16.5 4.25 16.5H15.75C16.1631 16.5 16.5 16.1631 16.5 15.75V13.7285C16.5 13.3145 16.8359 12.9785 17.25 12.9785C17.6641 12.9785 18 13.3145 18 13.7285V15.75C18 16.9902 16.9902 18 15.75 18Z" fill="#292929"/>
</svg>
