<!-- Figma 6082-526066: https://www.figma.com/design/mcJuQTxJdWsL0dMmqaecpn/Final-Color-Expansion-CCEX-221263?node-id=6082-526066&m=dev -->
<svg width="32" height="32" viewBox="0 0 32 32" fill="none" xmlns="http://www.w3.org/2000/svg">
<g clip-path="url(#clip0_6082_526066)">
<mask id="mask0_6082_526066" style="mask-type:alpha" maskUnits="userSpaceOnUse" x="6" y="6" width="20" height="20">
<path d="M16 18.7764C18.4228 18.7764 20.25 17.0645 20.25 14.7949C20.25 13.0947 18.8633 11.2715 17.6401 9.66405C17.2656 9.17186 16.9092 8.70409 16.624 8.27635C16.3457 7.85838 15.6543 7.85838 15.376 8.27635C15.0908 8.70408 14.7344 9.17186 14.3599 9.66405C13.1367 11.2715 11.75 13.0947 11.75 14.7949C11.75 17.0644 13.5771 18.7764 16 18.7764ZM15.5537 10.5723C15.7065 10.3711 15.8564 10.1738 16 9.98144C16.1435 10.1738 16.2934 10.3711 16.4463 10.5723C17.4727 11.9209 18.75 13.5996 18.75 14.7949C18.75 16.2324 17.5933 17.2764 16 17.2764C14.4067 17.2764 13.25 16.2324 13.25 14.7949C13.25 13.5996 14.5273 11.9209 15.5537 10.5723Z" fill="#292929"/>
<path d="M24.25 11.8018C23.8359 11.8018 23.5 12.1377 23.5 12.5518V14.4873H22.2827C21.8686 14.4873 21.5327 14.8232 21.5327 15.2373C21.5327 15.6514 21.8686 15.9873 22.2827 15.9873H23.5V21.8018C23.5 22.2148 23.1636 22.5518 22.75 22.5518H9.25C8.83643 22.5518 8.5 22.2148 8.5 21.8018V15.9873H9.71729C10.1314 15.9873 10.4673 15.6514 10.4673 15.2373C10.4673 14.8232 10.1314 14.4873 9.71729 14.4873H8.5V12.5518C8.5 12.1377 8.16406 11.8018 7.75 11.8018C7.33594 11.8018 7 12.1377 7 12.5518V21.8018C7 23.042 8.00928 24.0518 9.25 24.0518H22.75C23.9907 24.0518 25 23.042 25 21.8018V12.5518C25 12.1377 24.6641 11.8018 24.25 11.8018Z" fill="#292929"/>
</mask>
<g mask="url(#mask0_6082_526066)">
<rect x="6" y="6" width="20" height="20" fill="#292929"/>
</g>
</g>
<defs>
<clipPath id="clip0_6082_526066">
<rect width="32" height="32" rx="8" fill="white"/>
</clipPath>
</defs>
</svg>
