<svg preserveAspectRatio="none" width="100%" height="100%" overflow="visible" style="display: block;" viewBox="0 0 20 20" fill="none" xmlns="http://www.w3.org/2000/svg">
<g id="Frame">
<path id="iconPrimary" d="M17 11V16C17 16.6 16.6 17 16 17H4C3.4 17 3 16.6 3 16V11C3 10.4 2.6 10 2 10C1.4 10 1 10.4 1 11V16C1 17.7 2.3 19 4 19H16C17.7 19 19 17.7 19 16V11C19 10.4 18.6 10 18 10C17.4 10 17 10.4 17 11ZM10.7 11.7L13.7 8.7C14.1 8.3 14.1 7.7 13.7 7.3C13.3 6.9 12.7 6.9 12.3 7.3L11 8.6V2C11 1.4 10.6 1 10 1C9.4 1 9 1.4 9 2V8.6L7.7 7.3C7.3 6.9 6.7 6.9 6.3 7.3C5.9 7.7 5.9 8.3 6.3 8.7L9.3 11.7C9.5 11.9 9.7 12 10 12C10.3 12 10.5 11.9 10.7 11.7Z" fill="var(--fill-0, #292929)"/>
</g>
</svg>
