<svg width="20" height="20" viewBox="0 0 20 20" fill="none" xmlns="http://www.w3.org/2000/svg">
<path d="M9.25 15.5H2.75C2.33594 15.5 2 15.1641 2 14.75C2 14.3359 2.33594 14 2.75 14H9.25C9.66406 14 10 14.3359 10 14.75C10 15.1641 9.66406 15.5 9.25 15.5Z" fill="#292929"/>
<path d="M13.25 10.5H2.75C2.33594 10.5 2 10.1641 2 9.75C2 9.33594 2.33594 9 2.75 9H13.25C13.6641 9 14 9.33594 14 9.75C14 10.1641 13.6641 10.5 13.25 10.5Z" fill="#292929"/>
<path d="M17.25 5.5H2.75C2.33594 5.5 2 5.16406 2 4.75C2 4.33594 2.33594 4 2.75 4H17.25C17.6641 4 18 4.33594 18 4.75C18 5.16406 17.6641 5.5 17.25 5.5Z" fill="#292929"/>
</svg>
