<svg width="80" height="80" viewBox="0 0 80 80" fill="none" xmlns="http://www.w3.org/2000/svg">
<path d="M69.3399 50.3599C68.1899 49.2199 66.6899 48.9499 65.6199 48.7599C64.7899 48.6099 64.7299 48.5499 64.3599 48.1999C64.1499 47.9999 63.9099 47.6899 63.9099 47.2999C63.9099 46.9099 64.1599 46.5999 64.3599 46.3999L67.5299 43.3799C70.3199 40.7399 71.8499 37.2099 71.8599 33.4399C71.8599 29.6599 70.3199 26.1299 67.5299 23.4899C64.8499 20.9599 61.4799 19.2499 57.7499 18.4199C59.2099 19.2299 60.5799 20.1899 61.7899 21.3299C64.5799 23.9699 66.1199 27.4999 66.1199 31.2799C66.1199 35.0499 64.5799 38.5799 61.7899 41.2199L58.6199 44.2399C58.4099 44.4399 58.1699 44.7499 58.1699 45.1399C58.1699 45.5299 58.4199 45.8399 58.6199 46.0399C58.9899 46.3899 59.0499 46.4599 59.8799 46.5999C60.9499 46.7899 62.4499 47.0699 63.5999 48.1999C64.6599 49.2599 65.2899 50.8899 65.2599 52.5599C65.2399 54.1699 64.6299 55.6299 63.5399 56.6499C59.2199 60.7599 52.9899 63.1199 46.4499 63.1199C44.1899 63.0999 42.0099 62.8199 39.9399 62.3099C43.5699 64.1999 47.7299 65.2399 52.1899 65.2699C58.7299 65.2699 64.9599 62.9099 69.2799 58.7999C70.3599 57.7799 70.9699 56.3199 70.9999 54.7099C71.0199 53.0399 70.3999 51.4099 69.3399 50.3499V50.3599Z" fill="#ACCFFD"/>
<path d="M19.2499 65.2898C25.3858 65.2898 30.3599 60.3157 30.3599 54.1798C30.3599 48.0439 25.3858 43.0698 19.2499 43.0698C13.114 43.0698 8.13989 48.0439 8.13989 54.1798C8.13989 60.3157 13.114 65.2898 19.2499 65.2898Z" fill="#ACCFFD"/>
<path d="M64.31 47.5C62.94 46.15 61.2101 45.8299 60.0601 45.6199C59.6701 45.5499 59.55 45.52 59.51 45.5C59.45 45.4599 59.4001 45.4 59.32 45.32C59.21 45.2199 59.18 45.15 59.17 45.16C59.17 45.1399 59.21 45.07 59.32 44.97L62.4901 41.9599C65.4801 39.1299 67.13 35.34 67.13 31.29C67.13 27.24 65.4801 23.45 62.4901 20.61C58.4501 16.8 52.92 14.7 46.92 14.7C40.06 14.7 33.2001 17.47 28.1 22.31C23.2301 26.92 20.55 33.09 20.55 39.68C20.55 40.1399 20.56 40.61 20.59 41.07C20.62 41.6199 21.11 42.0399 21.65 42.0099C22.2 41.9799 22.62 41.51 22.59 40.95C22.57 40.53 22.55 40.1 22.55 39.68C22.55 33.6399 25.01 27.99 29.48 23.76C34.21 19.27 40.57 16.7 46.93 16.7C52.41 16.7 57.4501 18.61 61.12 22.07C63.71 24.52 65.14 27.8 65.14 31.29C65.14 34.78 63.7101 38.0599 61.1301 40.5099L57.9501 43.5299C57.4501 44.0099 57.19 44.57 57.19 45.15C57.19 45.73 57.4501 46.29 57.9501 46.77C58.5101 47.2999 58.7701 47.43 59.7201 47.59C60.73 47.77 61.9901 48 62.91 48.9199C63.7901 49.7999 64.3 51.16 64.28 52.56C64.26 53.9 63.76 55.0999 62.87 55.9399C58.73 59.8799 52.76 62.1399 46.48 62.1399C41.88 62.11 37.5 60.9599 33.7901 58.82C33.3601 58.57 32.93 58.3099 32.51 58.0299C32.05 57.7299 31.4301 57.85 31.1201 58.31C30.8101 58.77 30.94 59.3899 31.4 59.7C31.85 60 32.3101 60.29 32.7901 60.56C36.7901 62.87 41.5201 64.11 46.4701 64.1399C53.2601 64.1399 59.74 61.68 64.24 57.3899C65.52 56.18 66.24 54.47 66.27 52.59C66.3 50.66 65.57 48.7599 64.31 47.5099C64.31 47.5099 64.3101 47.5099 64.3001 47.5H64.31Z" fill="#292929"/>
<path d="M37.6302 44.8098C37.6302 42.4798 35.7302 40.5798 33.4002 40.5798C31.0702 40.5798 29.1702 42.4798 29.1702 44.8098C29.1702 47.1398 31.0702 49.0398 33.4002 49.0398C35.7302 49.0398 37.6302 47.1398 37.6302 44.8098ZM31.1602 44.8098C31.1602 43.5798 32.1602 42.5798 33.3902 42.5798C34.6202 42.5798 35.6202 43.5798 35.6202 44.8098C35.6202 46.0398 34.6202 47.0398 33.3902 47.0398C32.1602 47.0398 31.1602 46.0398 31.1602 44.8098Z" fill="#292929"/>
<path d="M33.4002 38.2701C35.7302 38.2701 37.6302 36.3701 37.6302 34.0401C37.6302 31.7101 35.7302 29.8101 33.4002 29.8101C31.0702 29.8101 29.1702 31.7101 29.1702 34.0401C29.1702 36.3701 31.0702 38.2701 33.4002 38.2701ZM33.4002 31.8001C34.6302 31.8001 35.6302 32.8001 35.6302 34.0301C35.6302 35.2601 34.6302 36.2601 33.4002 36.2601C32.1702 36.2601 31.1702 35.2601 31.1702 34.0301C31.1702 32.8001 32.1702 31.8001 33.4002 31.8001Z" fill="#292929"/>
<path d="M42.02 55.5201C44.35 55.5201 46.25 53.6201 46.25 51.2901C46.25 48.9601 44.35 47.0601 42.02 47.0601C39.69 47.0601 37.79 48.9601 37.79 51.2901C37.79 53.6201 39.69 55.5201 42.02 55.5201ZM42.02 49.0501C43.25 49.0501 44.25 50.0501 44.25 51.2801C44.25 52.5101 43.25 53.5101 42.02 53.5101C40.79 53.5101 39.79 52.5101 39.79 51.2801C39.79 50.0501 40.79 49.0501 42.02 49.0501Z" fill="#292929"/>
<path d="M42.02 31.7998C44.35 31.7998 46.25 29.8998 46.25 27.5698C46.25 25.2398 44.35 23.3398 42.02 23.3398C39.69 23.3398 37.79 25.2398 37.79 27.5698C37.79 29.8998 39.69 31.7998 42.02 31.7998ZM42.02 25.3298C43.25 25.3298 44.25 26.3298 44.25 27.5598C44.25 28.7898 43.25 29.7898 42.02 29.7898C40.79 29.7898 39.79 28.7898 39.79 27.5598C39.79 26.3298 40.79 25.3298 42.02 25.3298Z" fill="#292929"/>
<path d="M57.0401 29.72C57.0401 27.39 55.1401 25.49 52.8101 25.49C50.4801 25.49 48.5801 27.39 48.5801 29.72C48.5801 32.05 50.4801 33.95 52.8101 33.95C55.1401 33.95 57.0401 32.05 57.0401 29.72ZM50.5701 29.72C50.5701 28.49 51.5701 27.49 52.8001 27.49C54.0301 27.49 55.0301 28.49 55.0301 29.72C55.0301 30.95 54.0301 31.95 52.8001 31.95C51.5701 31.95 50.5701 30.95 50.5701 29.72Z" fill="#292929"/>
<path d="M26.6301 53.18H20.2501V46.8C20.2501 46.25 19.8001 45.8 19.2501 45.8C18.7001 45.8 18.2501 46.25 18.2501 46.8V53.18H11.8701C11.3201 53.18 10.8701 53.63 10.8701 54.18C10.8701 54.7301 11.3201 55.18 11.8701 55.18H18.2501V61.5601C18.2501 62.1101 18.7001 62.5601 19.2501 62.5601C19.8001 62.5601 20.2501 62.1101 20.2501 61.5601V55.18H26.6301C27.1801 55.18 27.6301 54.7301 27.6301 54.18C27.6301 53.63 27.1801 53.18 26.6301 53.18Z" fill="#3B63FB"/>
</svg>
