<svg width="20" height="20" viewBox="0 0 20 20" fill="none" xmlns="http://www.w3.org/2000/svg">
<path d="M7.25 13.5H3.25C2.83643 13.5 2.5 13.1631 2.5 12.75V3.25C2.5 2.83691 2.83643 2.5 3.25 2.5H12.75C13.1636 2.5 13.5 2.83691 13.5 3.25V7.25C13.5 7.66406 13.8359 8 14.25 8C14.6641 8 15 7.66406 15 7.25V3.25C15 2.00977 13.9907 1 12.75 1H3.25C2.00928 1 1 2.00977 1 3.25V12.75C1 13.9902 2.00928 15 3.25 15H7.25C7.66406 15 8 14.6641 8 14.25C8 13.8359 7.66406 13.5 7.25 13.5Z" fill="#292929"/>
<path d="M10.4235 7.11912L6.88745 5.21873C6.22125 4.86058 5.41406 5.34324 5.41406 6.09959V9.90037C5.41406 10.6567 6.22125 11.1391 6.88745 10.7812L8.50073 9.91404C9.01666 9.0051 9.88916 8.32737 10.9379 8.09422C10.973 7.71776 10.8067 7.32518 10.4235 7.11912Z" fill="#292929"/>
<path d="M18.75 15.25C18.3359 15.25 18 15.5859 18 16V17.25C18 17.6631 17.6636 18 17.25 18H11.75C11.3364 18 11 17.6631 11 17.25V11.75C11 11.3369 11.3364 11 11.75 11H13C13.4141 11 13.75 10.6641 13.75 10.25C13.75 9.83594 13.4141 9.5 13 9.5H11.75C10.5093 9.5 9.5 10.5098 9.5 11.75V17.25C9.5 18.4902 10.5093 19.5 11.75 19.5H17.25C18.4907 19.5 19.5 18.4902 19.5 17.25V16C19.5 15.5859 19.1641 15.25 18.75 15.25Z" fill="#292929"/>
<path d="M18.7495 9.5H16.0078C15.5938 9.5 15.2578 9.83594 15.2578 10.25C15.2578 10.6641 15.5938 11 16.0078 11H17.1152L15.5576 12.5576C15.3135 12.8018 15.3135 13.1982 15.5576 13.4424C15.6797 13.5645 15.8394 13.625 15.9995 13.625C16.1597 13.625 16.3193 13.5645 16.4414 13.4424L17.9995 11.8843V12.9922C17.9995 13.4063 18.3354 13.7422 18.7495 13.7422C19.1636 13.7422 19.4995 13.4063 19.4995 12.9922V10.25C19.4995 9.83594 19.1636 9.5 18.7495 9.5Z" fill="#292929"/>
<path d="M14.125 13.625C14.4702 13.625 14.75 13.3452 14.75 13C14.75 12.6548 14.4702 12.375 14.125 12.375C13.7798 12.375 13.5 12.6548 13.5 13C13.5 13.3452 13.7798 13.625 14.125 13.625Z" fill="#292929"/>
<path d="M12.25 13.625C12.5952 13.625 12.875 13.3452 12.875 13C12.875 12.6548 12.5952 12.375 12.25 12.375C11.9048 12.375 11.625 12.6548 11.625 13C11.625 13.3452 11.9048 13.625 12.25 13.625Z" fill="#292929"/>
<path d="M16 15.5C16.3452 15.5 16.625 15.2202 16.625 14.875C16.625 14.5298 16.3452 14.25 16 14.25C15.6548 14.25 15.375 14.5298 15.375 14.875C15.375 15.2202 15.6548 15.5 16 15.5Z" fill="#292929"/>
<path d="M16 17.375C16.3452 17.375 16.625 17.0952 16.625 16.75C16.625 16.4048 16.3452 16.125 16 16.125C15.6548 16.125 15.375 16.4048 15.375 16.75C15.375 17.0952 15.6548 17.375 16 17.375Z" fill="#292929"/>
</svg>
