<svg width="20" height="20" viewBox="0 0 20 20" fill="none" xmlns="http://www.w3.org/2000/svg">
<path d="M6.88745 5.21873C6.22125 4.86058 5.41406 5.34324 5.41406 6.09959V9.90037C5.41406 10.6567 6.22125 11.1391 6.88745 10.7812L10.4235 8.88084C11.1256 8.5034 11.1256 7.49656 10.4235 7.11912L6.88745 5.21873Z" fill="#292929"/>
<path d="M7.5 13.5H3.25C2.83643 13.5 2.5 13.1631 2.5 12.75V3.25C2.5 2.83691 2.83643 2.5 3.25 2.5H12.75C13.1636 2.5 13.5 2.83691 13.5 3.25V9.25C13.5 9.66406 13.8359 10 14.25 10C14.6641 10 15 9.66406 15 9.25V3.25C15 2.00977 13.9907 1 12.75 1H3.25C2.00928 1 1 2.00977 1 3.25V12.75C1 13.9902 2.00928 15 3.25 15H7.5C7.91406 15 8.25 14.6641 8.25 14.25C8.25 13.8359 7.91406 13.5 7.5 13.5Z" fill="#292929"/>
<path d="M17.5377 15.2886C17.5188 15.2847 17.5038 15.273 17.4844 15.2705C16.952 15.2002 16.4198 15.0259 15.9811 14.8323L16.0215 14.8105C16.1621 14.7353 16.3106 14.6797 16.5411 14.6025C16.8633 14.4941 17.3398 14.3303 17.6278 14.2922C17.6438 14.2903 17.6545 14.281 17.6699 14.2781C18.7003 14.1382 19.5 13.2625 19.5 12.1943C19.5 11.0293 18.5518 10.0811 17.3868 10.0811C16.2217 10.0811 15.274 11.0293 15.274 12.1943C15.274 12.6243 15.4046 13.0237 15.6261 13.3577C15.5215 13.4014 15.4131 13.4346 15.3116 13.4893L14.479 13.938L10.2061 11.833C9.83305 11.6475 9.38481 11.8027 9.20219 12.1748C9.01957 12.5459 9.17192 12.9961 9.54399 13.1787L13.837 15.2939C14.0186 15.3828 14.1993 15.5176 14.3897 15.6592C14.6667 15.866 15.0884 16.0972 15.5855 16.2978C15.3919 16.6167 15.274 16.9871 15.274 17.3867C15.274 18.5518 16.2217 19.5 17.3868 19.5C18.5518 19.5 19.5 18.5518 19.5 17.3867C19.5 16.2734 18.6313 15.3677 17.5377 15.2886ZM17.3868 11.3311C17.8628 11.3311 18.25 11.7188 18.25 12.1943C18.25 12.6699 17.8628 13.0566 17.3868 13.0566C16.9112 13.0566 16.524 12.6699 16.524 12.1943C16.524 11.7188 16.9112 11.3311 17.3868 11.3311ZM17.3868 18.25C16.9112 18.25 16.524 17.8623 16.524 17.3867C16.524 16.9111 16.9112 16.5234 17.3868 16.5234C17.8628 16.5234 18.25 16.9111 18.25 17.3867C18.25 17.8623 17.8628 18.25 17.3868 18.25Z" fill="#292929"/>
<path d="M11.445 15.4562L9.54068 16.4045C9.17007 16.589 9.0192 17.0392 9.20377 17.4093C9.33512 17.673 9.60025 17.8254 9.87565 17.8254C9.98795 17.8254 10.1022 17.8 10.2096 17.7463L12.1139 16.798C12.4845 16.6135 12.6354 16.1633 12.4508 15.7931C12.2658 15.4221 11.8161 15.2707 11.445 15.4562Z" fill="#292929"/>
</svg>
