<svg width="20" height="20" viewBox="0 0 20 20" fill="none" xmlns="http://www.w3.org/2000/svg">
<path d="M6.63745 5.12498C5.97119 4.76683 5.16406 5.24949 5.16406 6.00584V9.80662C5.16406 10.563 5.97119 11.0456 6.63745 10.6875L10.1733 8.78709C10.8755 8.40989 10.8755 7.40281 10.1733 7.02537L6.63745 5.12498Z" fill="#292929"/>
<path d="M8.75 13.5H3.25C2.83691 13.5 2.5 13.1631 2.5 12.75V3.25C2.5 2.83691 2.83691 2.5 3.25 2.5H12.75C13.1631 2.5 13.5 2.83691 13.5 3.25V8.75C13.5 9.16406 13.8359 9.5 14.25 9.5C14.6641 9.5 15 9.16406 15 8.75V3.25C15 2.00977 13.9902 1 12.75 1H3.25C2.00977 1 1 2.00977 1 3.25V12.75C1 13.9902 2.00977 15 3.25 15H8.75C9.16406 15 9.5 14.6641 9.5 14.25C9.5 13.8359 9.16406 13.5 8.75 13.5Z" fill="#292929"/>
<path d="M18.4668 16.4062H12.2168V10.1562C12.2168 9.74219 11.8809 9.40625 11.4668 9.40625C11.0527 9.40625 10.7168 9.74219 10.7168 10.1562V10.9062H9.9668C9.55274 10.9062 9.2168 11.2422 9.2168 11.6562C9.2168 12.0703 9.55274 12.4062 9.9668 12.4062H10.7168V16.4062C10.7168 17.2051 11.418 17.9062 12.2168 17.9062H16.2168V18.6562C16.2168 19.0703 16.5527 19.4062 16.9668 19.4062C17.3809 19.4062 17.7168 19.0703 17.7168 18.6562V17.9062H18.4668C18.8809 17.9062 19.2168 17.5703 19.2168 17.1562C19.2168 16.7422 18.8809 16.4062 18.4668 16.4062Z" fill="#292929"/>
<path d="M13.4668 11.6562C13.4668 12.0703 13.8027 12.4062 14.2168 12.4062L16.2168 12.3535V14.4062C16.2168 14.8203 16.5527 15.1562 16.9668 15.1562C17.3809 15.1562 17.7168 14.8203 17.7168 14.4062V12.3535C17.7168 11.5557 17.0674 10.9062 16.2695 10.9062H14.2168C13.8027 10.9062 13.4668 11.2422 13.4668 11.6562Z" fill="#292929"/>
</svg>
